<svg width="24" height="24" viewBox="0 0 24 24" fill="none" xmlns="http://www.w3.org/2000/svg">
<path opacity="0.8" d="M23.354 10.9506C23.341 10.1304 23.0103 9.34724 22.4316 8.76589C21.8528 8.18454 21.0711 7.85034 20.251 7.83361C20.0433 6.7545 19.4639 5.78233 18.6136 5.08622C17.7633 4.39011 16.6959 4.0141 15.597 4.02361C14.4529 4.01544 13.345 4.42398 12.4801 5.17295C11.6152 5.92192 11.0524 6.9601 10.897 8.09361C10.4235 8.09464 9.95625 8.20124 9.52918 8.40566C9.10211 8.61009 8.726 8.90719 8.42825 9.27532C8.13051 9.64346 7.91861 10.0734 7.80799 10.5337C7.69738 10.9941 7.69083 11.4734 7.78882 11.9366C7.88681 12.3998 8.08688 12.8353 8.37445 13.2115C8.66203 13.5876 9.02987 13.8949 9.4512 14.1109C9.87252 14.3269 10.3367 14.4463 10.81 14.4602C11.2833 14.4742 11.7537 14.3824 12.187 14.1916H20.251C22.002 14.1466 23.4 12.7016 23.354 10.9516V10.9506Z" fill="url(#paint0_linear_939_12)"/>
<path d="M21.505 15.073C21.461 12.637 19.509 10.662 17.073 10.618C16.7762 9.0765 15.9484 7.68778 14.7336 6.69348C13.5188 5.69919 11.9938 5.16223 10.424 5.17604C8.78944 5.16411 7.20646 5.74776 5.97085 6.81792C4.73525 7.88807 3.93158 9.37152 3.71001 10.991C2.60928 11.4793 1.74667 12.3835 1.31079 13.506C0.874908 14.6285 0.901235 15.8779 1.38401 16.981C1.7392 17.7907 2.32271 18.4794 3.06315 18.9626C3.80358 19.4459 4.66883 19.7028 5.55301 19.702H17.073C19.574 19.637 21.571 17.574 21.505 15.072V15.073Z" fill="url(#paint1_linear_939_12)"/>
<defs>
<linearGradient id="paint0_linear_939_12" x1="2.88249" y1="4.28303" x2="23.786" y2="21.0295" gradientUnits="userSpaceOnUse">
<stop stop-color="white"/>
<stop offset="1" stop-color="white" stop-opacity="0.5"/>
</linearGradient>
<linearGradient id="paint1_linear_939_12" x1="-5.34206" y1="5.53705" x2="23.3263" y2="27.1805" gradientUnits="userSpaceOnUse">
<stop stop-color="white"/>
<stop offset="1" stop-color="white" stop-opacity="0.5"/>
</linearGradient>
</defs>
</svg>
